#!OML:ASF I:\golf\golf\golf 2\Subject 1\2002-09-07\Subject1.ASF
:FULLY-SPECIFIED
:DEGREES
232
root -5.778 17.8499 4.05458 1.53839 40.1539 -11.9834
lowerback 4.52589 -8.54014 -15.2922
upperback 0.490743 -11.9838 -3.43617
thorax 0.347926 -5.91779 4.93731
lowerneck -5.59749 20.5105 2.4441
upperneck 11.6907 29.7333 -14.0266
head 7.01989 13.5584 -1.93671
rclavicle -3.68746e-014 -1.04958e-013
rhumerus 19.993 -16.7233 -65.4543
rradius 107.78
rwrist 1.88902
rhand -62.3825 60.9174
rfingers 7.12502
rthumb -34.417 34.2272
lclavicle -3.68746e-014 -1.04958e-013
lhumerus 105.405 -46.4428 42.7151
lradius 36.1267
lwrist -8.10663
lhand -31.0236 -2.13537
lfingers 7.12502
lthumb -184.306 -152.199
rfemur -29.1641 18.5619 24.9639
rtibia 30.412
rfoot -4.3141 22.8233
rtoes 29.1413
lfemur -6.59452 23.1424 4.51652
ltibia 37.3909
lfoot -0.465021 13.6181
ltoes -37.4052
233
root -5.77839 17.8565 4.08323 1.59271 40.0084 -11.9195
lowerback 4.57323 -8.56001 -15.2075
upperback 0.418233 -12.0235 -3.57527
thorax 0.203855 -5.92199 4.76988
lowerneck -5.49848 20.5268 2.60301
upperneck 11.353 29.6848 -14.0932
head 6.92244 13.5679 -2.0009
rclavicle 4.21423e-014 -4.13472e-014
rhumerus 20.2334 -17.1885 -64.7306
rradius 108.191
rwrist 2.74989
rhand -62.2625 61.802
rfingers 7.12502
rthumb -34.303 35.086
lclavicle 4.21423e-014 -4.13472e-014
lhumerus 106.144 -46.2865 42.3541
lradius 36.1262
lwrist -9.11908
lhand -32.53 -2.19209
lfingers 7.12502
lthumb -185.76 -152.29
rfemur -29.0792 18.5737 25.0397
rtibia 30.3955
rfoot -4.21188 22.9918
rtoes 29.5618
lfemur -6.45815 22.9934 4.64692
ltibia 37.4243
lfoot -0.433595 13.439
ltoes -36.6442
234
root -5.77825 17.8561 4.11085 1.54812 39.8686 -12.0556
lowerback 4.5834 -8.5525 -15.008
upperback 0.317565 -12.0209 -3.62134
thorax 0.0396312 -5.90585 4.64002
lowerneck -5.1689 20.5082 2.78777
upperneck 10.9826 29.5886 -14.2276
head 6.7878 13.5669 -2.11845
rclavicle 8.83598e-014 2.22639e-014
rhumerus 20.323 -17.7348 -63.7893
rradius 108.658
rwrist 3.24396
rhand -62.0793 62.0928
rfingers 7.12502
rthumb -34.129 35.3378
lclavicle 8.83598e-014 2.22639e-014
lhumerus 106.929 -46.0642 42.1287
lradius 36.422
lwrist -8.99117
lhand -32.8557 -2.26303
lfingers 7.12502
lthumb -186.075 -152.37
rfemur -29.0415 18.6567 25.2514
rtibia 30.3904
rfoot -4.15334 23.0828
rtoes 29.8971
lfemur -6.40134 23.0118 4.90661
ltibia 37.4359
lfoot -0.193539 13.4621
ltoes -36.0975
235
root -5.77797 17.8556 4.13864 1.68459 39.7699 -11.9032
lowerback 4.59436 -8.57601 -15.0856
upperback 0.282068 -12.0618 -3.57063
thorax 0.0296059 -5.9243 4.73283
lowerneck -5.23106 20.5653 2.43608
upperneck 10.6688 29.6391 -14.2863
head 6.661 13.596 -2.10609
rclavicle 6.5102e-014 -1.59028e-014
rhumerus 20.7804 -18.245 -62.8011
rradius 108.946
rwrist 3.89948
rhand -61.8984 61.5648
rfingers 7.12502
rthumb -33.9572 34.7715
lclavicle 6.5102e-014 -1.59028e-014
lhumerus 107.593 -45.6138 42.3482
lradius 36.8683
lwrist -7.78156
lhand -32.3548 -2.87819
lfingers 7.12502
lthumb -185.591 -152.972
rfemur -29.0123 18.8207 25.1898
rtibia 30.3777
rfoot -4.14947 23.0619
rtoes 29.8127
lfemur -6.40411 23.1201 4.89131
ltibia 37.4531
lfoot 0.692923 13.3038
ltoes -37.9916
236
root -5.78008 17.8611 4.16739 1.89332 39.6748 -11.643
lowerback 4.66701 -8.66942 -15.2868
upperback 0.314638 -12.2039 -3.41424
thorax 0.126243 -6.00417 4.9899
lowerneck -6.08253 20.7169 1.36637
upperneck 10.6314 29.8763 -13.9325
head 6.59836 13.6537 -1.80612
rclavicle -1.16985e-013 3.49861e-014
rhumerus 21.7142 -18.6401 -62.0615
rradius 109.183
rwrist 4.59529
rhand -61.7721 61.2146
rfingers 7.12502
rthumb -33.8372 34.3948
lclavicle -1.16985e-013 3.49861e-014
lhumerus 108.016 -44.9192 42.7678
lradius 37.1425
lwrist -7.38377
lhand -32.4301 -3.35049
lfingers 7.12502
lthumb -185.664 -153.446
rfemur -28.9918 18.9852 25.0387
rtibia 30.3556
rfoot -4.11312 23.0303
rtoes 29.7595
lfemur -6.39217 23.1922 4.80095
ltibia 37.4827
lfoot 1.35567 13.0503
ltoes -39.324
237
root -5.78331 17.8688 4.1929 2.01428 39.5448 -11.6343
lowerback 4.70885 -8.79352 -15.276
upperback 0.274185 -12.3815 -3.28009
thorax 0.121885 -6.09252 5.12225
lowerneck -6.7302 20.889 0.554919
upperneck 10.674 30.1229 -13.4564
head 6.54224 13.7397 -1.51811
rclavicle 3.18055e-014 5.40694e-014
rhumerus 22.4728 -18.9392 -61.4718
rradius 109.394
rwrist 5.04807
rhand -61.46 62.1095
rfingers 7.12502
rthumb -33.5406 35.225
lclavicle 3.18055e-014 5.40694e-014
lhumerus 108.392 -44.2432 42.7902
lradius 37.309
lwrist -7.80817
lhand -33.1694 -3.15963
lfingers 7.12502
lthumb -186.378 -153.276
rfemur -29.0584 19.1854 25.0586
rtibia 30.3307
rfoot -3.98985 23.0069
rtoes 29.9963
lfemur -6.42045 23.1273 4.89707
ltibia 37.514
lfoot 1.26084 13.1526
ltoes -38.1412
238
root -5.78667 17.8763 4.21489 2.17881 39.4016 -11.5349
lowerback 4.8689 -9.25384 -15.5167
upperback 0.387104 -13.0217 -2.65574
thorax 0.479997 -6.45139 5.84305
lowerneck -8.82045 21.3711 -2.14827
upperneck 10.6817 31.0185 -12.7632
head 6.43994 14.014 -0.803861
rclavicle 2.29596e-014 1.27222e-014
rhumerus 24.724 -18.395 -61.1021
rradius 109.379
rwrist 5.79066
rhand -61.7101 63.3034
rfingers 7.12502
rthumb -33.7783 36.4707
lclavicle 2.29596e-014 1.27222e-014
lhumerus 107.915 -42.2278 43.6452
lradius 37.4671
lwrist -8.35488
lhand -33.9961 -2.96718
lfingers 7.12502
lthumb -187.176 -153.109
rfemur -29.1123 19.3586 25.005
rtibia 30.3014
rfoot -3.90378 23.0293
rtoes 30.0771
lfemur -6.42401 22.9721 4.89856
ltibia 37.5645
lfoot 0.53565 13.5197
ltoes -34.6944
239
root -5.78855 17.8772 4.23823 2.30182 39.2947 -11.3238
lowerback 4.89055 -9.05206 -15.6381
upperback 0.276295 -12.7733 -3.01224
thorax 0.238697 -6.29738 5.57657
lowerneck -7.88785 21.2273 -0.735393
upperneck 10.4841 30.6769 -13.2439
head 6.48743 13.9272 -1.17967
rclavicle -1.00386e-014 -7.95139e-014
rhumerus 24.0812 -19.5644 -60.418
rradius 109.8
rwrist 6.73162
rhand -62.4319 63.6275
rfingers 7.12502
rthumb -34.4638 36.9479
lclavicle -1.00386e-014 -7.95139e-014
lhumerus 108.797 -42.6996 42.9881
lradius 37.9918
lwrist -8.21683
lhand -34.404 -2.98285
lfingers 7.12502
lthumb -187.569 -153.138
rfemur -29.0273 19.4272 24.9198
rtibia 30.2741
rfoot -3.86647 23.0883
rtoes 30.0746
lfemur -6.34917 23.0412 4.82459
ltibia 37.6235
lfoot 0.217415 13.7754
ltoes -32.1726
240
root -5.79029 17.8747 4.26197 2.31873 39.2293 -11.2717
lowerback 4.83617 -8.72646 -15.5043
upperback 0.108497 -12.344 -3.56418
thorax -0.152018 -6.03975 4.99065
lowerneck -6.43967 20.9496 1.31137
upperneck 10.4129 30.1143 -13.6281
head 6.54456 13.7832 -1.6671
rclavicle 1.39149e-013 -1.27222e-014
rhumerus 22.7382 -20.8517 -59.4832
rradius 110.29
rwrist 7.03106
rhand -62.2557 62.8952
rfingers 7.12502
rthumb -34.2966 36.1777
lclavicle 1.39149e-013 -1.27222e-014
lhumerus 109.985 -43.7893 42.0869
lradius 38.4311
lwrist -7.99472
lhand -34.4815 -3.01899
lfingers 7.12502
lthumb -187.644 -153.177
rfemur -28.9497 19.5095 24.9567
rtibia 30.2717
rfoot -3.82031 23.1041
rtoes 30.1486
lfemur -6.29713 23.1262 4.86649
ltibia 37.6456
lfoot 1.17981 13.5464
ltoes -35.0276
241
root -5.79282 17.8773 4.28493 2.35645 39.1906 -11.2872
lowerback 4.82241 -8.6927 -15.3551
upperback 0.011552 -12.3021 -3.73141
thorax -0.324507 -6.00095 4.76075
lowerneck -6.26601 20.9618 1.67079
upperneck 10.6238 30.0989 -13.3936
head 6.5947 13.7972 -1.64774
rclavicle 9.17391e-014 -6.36111e-014
rhumerus 22.4635 -21.2155 -58.654
rradius 110.435
rwrist 7.21852
rhand -60.9959 59.8582
rfingers 7.12502
rthumb -33.0994 32.879
lclavicle 9.17391e-014 -6.36111e-014
lhumerus 110.397 -44.044 42.1063
lradius 38.4824
lwrist -8.23362
lhand -34.874 -3.69727
lfingers 7.12502
lthumb -188.023 -153.87
rfemur -28.9577 19.5531 25.0311
rtibia 30.2932
rfoot -3.77951 23.1533
rtoes 30.2224
lfemur -6.2852 22.9439 4.95226
ltibia 37.6471
lfoot 2.16548 13.0404
ltoes -38.5236
242
root -5.79315 17.8797 4.30732 2.47811 39.1369 -11.1986
lowerback 4.79507 -8.77774 -15.3449
upperback -0.0239565 -12.4126 -3.73901
thorax -0.330416 -6.05333 4.74158
lowerneck -6.45015 21.0581 1.44336
upperneck 10.6431 30.2334 -13.2547
head 6.5854 13.8515 -1.5568
rclavicle 8.48314e-014 4.45278e-014
rhumerus 22.7311 -21.3334 -58.0071
rradius 110.406
rwrist 7.8467
rhand -62.9411 60.2042
rfingers 7.12502
rthumb -34.9471 33.6357
lclavicle 8.48314e-014 4.45278e-014
lhumerus 110.515 -43.8171 42.3775
lradius 38.385
lwrist -9.04288
lhand -35.7657 -4.4379
lfingers 7.12502
lthumb -188.884 -154.645
rfemur -28.9674 19.5157 25.0315
rtibia 30.2925
rfoot -3.69486 23.2837
rtoes 30.4587
lfemur -6.28388 22.8086 4.93523
ltibia 37.6438
lfoot 2.63064 12.9412
ltoes -39.5815
243
root -5.79222 17.8812 4.32727 2.60571 39.0582 -11.0423
lowerback 4.7928 -8.84025 -15.4504
upperback -0.0251657 -12.4989 -3.70612
thorax -0.285121 -6.09839 4.82067
lowerneck -6.56 21.1408 1.12803
upperneck 10.3725 30.3276 -13.291
head 6.48388 13.899 -1.53214
rclavicle 4.24902e-014 1.90833e-014
rhumerus 23.1215 -21.6425 -57.4186
rradius 110.474
rwrist 8.43103
rhand -63.1934 61.4417
rfingers 7.12502
rthumb -35.1864 34.9294
lclavicle 4.24902e-014 1.90833e-014
lhumerus 110.79 -43.3634 42.4085
lradius 38.4607
lwrist -9.66081
lhand -36.4015 -4.29219
lfingers 7.12502
lthumb -189.497 -154.526
rfemur -28.9214 19.5053 24.9745
rtibia 30.2488
rfoot -3.58546 23.3876
rtoes 30.7818
lfemur -6.15255 22.8357 4.84667
ltibia 37.6083
lfoot 2.57563 13.1631
ltoes -38.6888
